<svg width="81" height="25" viewBox="0 0 81 25" fill="none" xmlns="http://www.w3.org/2000/svg">
<path d="M21.5568 8.875H16.5795C16.4886 8.23106 16.303 7.65909 16.0227 7.15909C15.7424 6.65151 15.3826 6.2197 14.9432 5.86364C14.5038 5.50757 13.9962 5.23485 13.4205 5.04545C12.8523 4.85606 12.2348 4.76136 11.5682 4.76136C10.3636 4.76136 9.31439 5.06061 8.42045 5.65909C7.52652 6.25 6.83333 7.11364 6.34091 8.25C5.84849 9.37879 5.60227 10.75 5.60227 12.3636C5.60227 14.0227 5.84849 15.4167 6.34091 16.5455C6.84091 17.6742 7.53788 18.5265 8.43182 19.1023C9.32576 19.678 10.3598 19.9659 11.5341 19.9659C12.1932 19.9659 12.803 19.8788 13.3636 19.7045C13.9318 19.5303 14.4356 19.2765 14.875 18.9432C15.3144 18.6023 15.678 18.1894 15.9659 17.7045C16.2614 17.2197 16.4659 16.6667 16.5795 16.0455L21.5568 16.0682C21.428 17.1364 21.1061 18.1667 20.5909 19.1591C20.0833 20.1439 19.3977 21.0265 18.5341 21.8068C17.678 22.5795 16.6553 23.1932 15.4659 23.6477C14.2841 24.0947 12.947 24.3182 11.4545 24.3182C9.37879 24.3182 7.52273 23.8485 5.88636 22.9091C4.25758 21.9697 2.9697 20.6098 2.02273 18.8295C1.08333 17.0492 0.613636 14.8939 0.613636 12.3636C0.613636 9.82576 1.09091 7.66667 2.04545 5.88636C3 4.10606 4.29545 2.75 5.93182 1.81818C7.56818 0.878787 9.40909 0.40909 11.4545 0.40909C12.803 0.40909 14.053 0.598484 15.2045 0.977272C16.3636 1.35606 17.3902 1.90909 18.2841 2.63636C19.178 3.35606 19.9053 4.23864 20.4659 5.28409C21.0341 6.32954 21.3977 7.52651 21.5568 8.875ZM32.8807 24.3409C31.1155 24.3409 29.589 23.9659 28.3011 23.2159C27.0208 22.4583 26.0322 21.4053 25.3352 20.0568C24.6383 18.7008 24.2898 17.1288 24.2898 15.3409C24.2898 13.5379 24.6383 11.9621 25.3352 10.6136C26.0322 9.25758 27.0208 8.20454 28.3011 7.45454C29.589 6.69697 31.1155 6.31818 32.8807 6.31818C34.6458 6.31818 36.1686 6.69697 37.4489 7.45454C38.7367 8.20454 39.7292 9.25758 40.4261 10.6136C41.1231 11.9621 41.4716 13.5379 41.4716 15.3409C41.4716 17.1288 41.1231 18.7008 40.4261 20.0568C39.7292 21.4053 38.7367 22.4583 37.4489 23.2159C36.1686 23.9659 34.6458 24.3409 32.8807 24.3409ZM32.9034 20.5909C33.7064 20.5909 34.3769 20.3636 34.9148 19.9091C35.4527 19.447 35.858 18.8182 36.1307 18.0227C36.411 17.2273 36.5511 16.322 36.5511 15.3068C36.5511 14.2917 36.411 13.3864 36.1307 12.5909C35.858 11.7955 35.4527 11.1667 34.9148 10.7045C34.3769 10.2424 33.7064 10.0114 32.9034 10.0114C32.0928 10.0114 31.411 10.2424 30.858 10.7045C30.3125 11.1667 29.8996 11.7955 29.6193 12.5909C29.3466 13.3864 29.2102 14.2917 29.2102 15.3068C29.2102 16.322 29.3466 17.2273 29.6193 18.0227C29.8996 18.8182 30.3125 19.447 30.858 19.9091C31.411 20.3636 32.0928 20.5909 32.9034 20.5909ZM51.0511 24.2841C49.7254 24.2841 48.5246 23.9432 47.4489 23.2614C46.3807 22.572 45.5322 21.5606 44.9034 20.2273C44.2822 18.8864 43.9716 17.2424 43.9716 15.2955C43.9716 13.2955 44.2936 11.6326 44.9375 10.3068C45.5814 8.97348 46.4375 7.97727 47.5057 7.31818C48.5814 6.65152 49.7595 6.31818 51.0398 6.31818C52.017 6.31818 52.8314 6.48485 53.483 6.81818C54.142 7.14394 54.6723 7.55303 55.0739 8.04545C55.483 8.5303 55.7936 9.00758 56.0057 9.47727H56.1534V0.727272H60.983V24H56.2102V21.2045H56.0057C55.7784 21.6894 55.4564 22.1705 55.0398 22.6477C54.6307 23.1174 54.0966 23.5076 53.4375 23.8182C52.786 24.1288 51.9905 24.2841 51.0511 24.2841ZM52.5852 20.4318C53.3655 20.4318 54.0246 20.2197 54.5625 19.7955C55.108 19.3636 55.5246 18.7614 55.8125 17.9886C56.108 17.2159 56.2557 16.3106 56.2557 15.2727C56.2557 14.2348 56.1117 13.3333 55.8239 12.5682C55.536 11.803 55.1193 11.2121 54.5739 10.7955C54.0284 10.3788 53.3655 10.1705 52.5852 10.1705C51.7898 10.1705 51.1193 10.3864 50.5739 10.8182C50.0284 11.25 49.6155 11.8485 49.3352 12.6136C49.0549 13.3788 48.9148 14.2652 48.9148 15.2727C48.9148 16.2879 49.0549 17.1856 49.3352 17.9659C49.6231 18.7386 50.036 19.3447 50.5739 19.7841C51.1193 20.2159 51.7898 20.4318 52.5852 20.4318ZM72.9176 24.3409C71.1222 24.3409 69.5767 23.9773 68.2812 23.25C66.9934 22.5152 66.0009 21.4773 65.304 20.1364C64.607 18.7879 64.2585 17.1932 64.2585 15.3523C64.2585 13.5568 64.607 11.9811 65.304 10.625C66.0009 9.26894 66.982 8.21212 68.2472 7.45454C69.5199 6.69697 71.0123 6.31818 72.7244 6.31818C73.8759 6.31818 74.9479 6.50379 75.9403 6.875C76.9403 7.23864 77.8116 7.78788 78.554 8.52273C79.304 9.25758 79.8873 10.1818 80.304 11.2955C80.7206 12.4015 80.929 13.697 80.929 15.1818V16.5114H66.1903V13.5114H76.3722C76.3722 12.8144 76.2206 12.197 75.9176 11.6591C75.6146 11.1212 75.1941 10.7008 74.6562 10.3977C74.1259 10.0871 73.5085 9.93182 72.804 9.93182C72.0691 9.93182 71.4176 10.1023 70.8494 10.4432C70.2888 10.7765 69.8494 11.2273 69.5312 11.7955C69.2131 12.3561 69.0502 12.9811 69.0426 13.6705V16.5227C69.0426 17.3864 69.2017 18.1326 69.5199 18.7614C69.8456 19.3902 70.304 19.875 70.8949 20.2159C71.4858 20.5568 72.1866 20.7273 72.9972 20.7273C73.535 20.7273 74.0275 20.6515 74.4744 20.5C74.9214 20.3485 75.304 20.1212 75.6222 19.8182C75.9403 19.5152 76.1828 19.1439 76.3494 18.7045L80.8267 19C80.5994 20.0758 80.1335 21.0152 79.429 21.8182C78.732 22.6136 77.8305 23.2348 76.7244 23.6818C75.6259 24.1212 74.357 24.3409 72.9176 24.3409Z" fill="#AE1543"/>
</svg>
